<svg width="1244" height="272" viewBox="0 0 1244 272" fill="none" xmlns="http://www.w3.org/2000/svg">
<rect width="199" height="24" rx="8" fill="white"/>
<rect y="36" width="199" height="36" rx="8" fill="white"/>
<rect y="84" width="199" height="16" rx="8" fill="#EFF1F0"/>
<rect y="112" width="199" height="48" rx="8" fill="#EFF1F0"/>
<rect y="172" width="199" height="64" rx="8" fill="#DFE3E1"/>
<rect y="248" width="199" height="24" rx="8" fill="#CFD5D2"/>
<rect x="209" y="96" width="199" height="24" rx="8" fill="white"/>
<rect x="209" y="132" width="199" height="16" rx="8" fill="#EFF1F0"/>
<rect x="209" y="160" width="199" height="36" rx="8" fill="#EFF1F0"/>
<rect x="209" y="208" width="199" height="64" rx="8" fill="#CFD5D2"/>
<rect x="418" y="140" width="199" height="36" rx="8" fill="white"/>
<rect x="418" y="188" width="199" height="48" rx="8" fill="#DFE3E1"/>
<rect x="418" y="248" width="199" height="24" rx="8" fill="#CFD5D2"/>
<rect x="627" y="136" width="199" height="16" rx="8" fill="white"/>
<rect x="627" y="164" width="199" height="24" rx="8" fill="#EFF1F0"/>
<rect x="627" y="200" width="199" height="24" rx="8" fill="#DFE3E1"/>
<rect x="627" y="236" width="199" height="36" rx="8" fill="#CFD5D2"/>
<rect x="836" y="96" width="199" height="64" rx="8" fill="white"/>
<rect x="836" y="172" width="199" height="24" rx="8" fill="#EFF1F0"/>
<rect x="836" y="208" width="199" height="36" rx="8" fill="#DFE3E1"/>
<rect x="836" y="256" width="199" height="16" rx="8" fill="#CFD5D2"/>
<rect x="1045" width="199" height="24" rx="8" fill="white"/>
<rect x="1045" y="36" width="199" height="64" rx="8" fill="white"/>
<rect x="1045" y="112" width="199" height="16" rx="8" fill="#EFF1F0"/>
<rect x="1045" y="140" width="199" height="48" rx="8" fill="#EFF1F0"/>
<rect x="1045" y="200" width="199" height="24" rx="8" fill="#DFE3E1"/>
<rect x="1045" y="236" width="199" height="36" rx="8" fill="#CFD5D2"/>
</svg>
